<svg width="34" height="28" viewBox="0 0 34 28" fill="none" xmlns="http://www.w3.org/2000/svg">
<path fill-rule="evenodd" clip-rule="evenodd" d="M4.2 1.5C2.71614 1.5 1.5 2.71614 1.5 4.2V23.4C1.5 24.8839 2.71614 26.1 4.2 26.1H29.8C31.2839 26.1 32.5 24.8839 32.5 23.4V4.2C32.5 2.71614 31.2839 1.5 29.8 1.5H4.2ZM0.5 4.2C0.5 2.16386 2.16386 0.5 4.2 0.5H29.8C31.8361 0.5 33.5 2.16386 33.5 4.2V23.4C33.5 25.4361 31.8361 27.1 29.8 27.1H4.2C2.16386 27.1 0.5 25.4361 0.5 23.4V4.2Z" fill="black"/>
<path fill-rule="evenodd" clip-rule="evenodd" d="M0.590427 3.91326C0.748784 3.68704 1.06055 3.63202 1.28677 3.79038L17 14.7897L32.7133 3.79038C32.9395 3.63202 33.2513 3.68704 33.4097 3.91326C33.568 4.13949 33.513 4.45125 33.2868 4.60961L17.2868 15.8096C17.1146 15.9301 16.8855 15.9301 16.7133 15.8096L0.713312 4.60961C0.487087 4.45125 0.43207 4.13949 0.590427 3.91326Z" fill="black"/>
</svg>
